<svg width="274" height="27" viewBox="0 0 274 27" fill="none" xmlns="http://www.w3.org/2000/svg">
<path d="M26.72 0.799998C26.984 0.799998 27.212 0.895998 27.404 1.088C27.596 1.28 27.692 1.508 27.692 1.772V7.568C27.692 7.832 27.596 8.06 27.404 8.252C27.212 8.444 26.984 8.54 26.72 8.54H18.98V25.028C18.98 25.292 18.884 25.52 18.692 25.712C18.5 25.904 18.272 26 18.008 26H10.592C10.328 26 10.1 25.904 9.908 25.712C9.716 25.52 9.62 25.292 9.62 25.028V8.54H1.88C1.616 8.54 1.388 8.444 1.196 8.252C1.004 8.06 0.908 7.832 0.908 7.568V1.772C0.908 1.508 1.004 1.28 1.196 1.088C1.388 0.895998 1.616 0.799998 1.88 0.799998H26.72ZM58.2779 15.596C58.2779 19.268 57.0539 21.98 54.6059 23.732C52.1819 25.484 48.9419 26.36 44.8859 26.36C40.8299 26.36 37.5779 25.484 35.1299 23.732C32.7059 21.98 31.4939 19.244 31.4939 15.524V11.276C31.4939 8.828 32.0699 6.8 33.2219 5.192C34.3979 3.56 35.9939 2.36 38.0099 1.592C40.0259 0.823999 42.3179 0.439999 44.8859 0.439999C47.4539 0.439999 49.7339 0.823999 51.7259 1.592C53.7419 2.36 55.3379 3.548 56.5139 5.156C57.6899 6.764 58.2779 8.78 58.2779 11.204V15.596ZM41.2139 16.28C41.2139 17.264 41.5379 18.02 42.1859 18.548C42.8579 19.076 43.7579 19.34 44.8859 19.34C46.0139 19.34 46.9019 19.076 47.5499 18.548C48.2219 17.996 48.5579 17.228 48.5579 16.244V10.556C48.5579 9.572 48.2219 8.816 47.5499 8.288C46.9019 7.736 46.0139 7.46 44.8859 7.46C43.7579 7.46 42.8579 7.724 42.1859 8.252C41.5379 8.78 41.2139 9.536 41.2139 10.52V16.28ZM79.1439 0.799998C81.3999 0.799998 83.3679 1.184 85.0479 1.952C86.7279 2.72 88.0119 3.764 88.8999 5.084C89.7879 6.404 90.2319 7.88 90.2319 9.512C90.2319 12.2 89.3919 14.312 87.7119 15.848C86.0319 17.36 83.1759 18.116 79.1439 18.116H74.3919V25.028C74.3919 25.292 74.2959 25.52 74.1039 25.712C73.9119 25.904 73.6839 26 73.4199 26H65.6799C65.4159 26 65.1879 25.904 64.9959 25.712C64.8039 25.52 64.7079 25.292 64.7079 25.028V1.772C64.7079 1.508 64.8039 1.28 64.9959 1.088C65.1879 0.895998 65.4159 0.799998 65.6799 0.799998H79.1439ZM78.9999 11.456C79.5759 11.456 80.0319 11.288 80.3679 10.952C80.7039 10.592 80.8719 10.124 80.8719 9.548C80.8719 8.948 80.7039 8.456 80.3679 8.072C80.0319 7.688 79.5759 7.496 78.9999 7.496H74.4279V11.456H78.9999ZM119.018 10.808C119.282 10.808 119.51 10.904 119.702 11.096C119.894 11.288 119.99 11.516 119.99 11.78V15.596C119.99 19.244 118.742 21.956 116.246 23.732C113.774 25.484 110.498 26.36 106.418 26.36C102.338 26.36 99.0498 25.484 96.5538 23.732C94.0818 21.956 92.8458 19.22 92.8458 15.524V11.276C92.8458 8.828 93.4458 6.8 94.6458 5.192C95.8458 3.56 97.4658 2.36 99.5058 1.592C101.546 0.823999 103.85 0.439999 106.418 0.439999C109.49 0.439999 112.022 0.943999 114.014 1.952C116.006 2.96 117.446 4.1 118.334 5.372C119.246 6.644 119.702 7.676 119.702 8.468C119.702 8.684 119.618 8.876 119.45 9.044C119.306 9.188 119.126 9.26 118.91 9.26H110.774C110.294 9.26 109.946 9.128 109.73 8.864C108.986 7.928 107.882 7.46 106.418 7.46C105.314 7.46 104.39 7.712 103.646 8.216C102.926 8.72 102.566 9.368 102.566 10.16V16.28C102.566 17.24 102.926 17.996 103.646 18.548C104.366 19.076 105.29 19.34 106.418 19.34C107.906 19.34 108.998 19.088 109.694 18.584C110.414 18.056 110.786 17.444 110.81 16.748H108.578C108.314 16.748 108.086 16.652 107.894 16.46C107.702 16.268 107.606 16.04 107.606 15.776V11.78C107.606 11.516 107.702 11.288 107.894 11.096C108.086 10.904 108.314 10.808 108.578 10.808H119.018ZM136.644 26.36C132.612 26.36 129.408 25.484 127.032 23.732C124.68 21.98 123.504 19.244 123.504 15.524V1.772C123.504 1.508 123.6 1.28 123.792 1.088C123.984 0.895998 124.212 0.799998 124.476 0.799998H132C132.264 0.799998 132.492 0.895998 132.684 1.088C132.876 1.28 132.972 1.508 132.972 1.772V16.1C132.972 17.084 133.296 17.84 133.944 18.368C134.616 18.896 135.516 19.16 136.644 19.16C137.772 19.16 138.66 18.896 139.308 18.368C139.98 17.84 140.316 17.084 140.316 16.1V1.772C140.316 1.508 140.412 1.28 140.604 1.088C140.796 0.895998 141.024 0.799998 141.288 0.799998H148.812C149.076 0.799998 149.304 0.895998 149.496 1.088C149.688 1.28 149.784 1.508 149.784 1.772V15.524C149.784 19.244 148.596 21.98 146.22 23.732C143.868 25.484 140.676 26.36 136.644 26.36ZM178.966 18.62C179.23 18.62 179.458 18.716 179.65 18.908C179.842 19.1 179.938 19.328 179.938 19.592V25.028C179.938 25.292 179.842 25.52 179.65 25.712C179.458 25.904 179.23 26 178.966 26H157.942C157.678 26 157.45 25.904 157.258 25.712C157.066 25.52 156.97 25.292 156.97 25.028V1.772C156.97 1.508 157.066 1.28 157.258 1.088C157.45 0.895998 157.678 0.799998 157.942 0.799998H165.718C165.982 0.799998 166.21 0.895998 166.402 1.088C166.594 1.28 166.69 1.508 166.69 1.772V18.62H178.966ZM209.984 0.799998C210.248 0.799998 210.476 0.895998 210.668 1.088C210.86 1.28 210.956 1.508 210.956 1.772V7.244C210.956 7.508 210.86 7.736 210.668 7.928C210.476 8.12 210.248 8.216 209.984 8.216H195.836V10.52H207.644C207.908 10.52 208.136 10.616 208.328 10.808C208.52 11 208.616 11.228 208.616 11.492V16.928C208.616 17.192 208.52 17.42 208.328 17.612C208.136 17.804 207.908 17.9 207.644 17.9H195.836V25.028C195.836 25.292 195.74 25.52 195.548 25.712C195.356 25.904 195.128 26 194.864 26H187.088C186.824 26 186.596 25.904 186.404 25.712C186.212 25.52 186.116 25.292 186.116 25.028V1.772C186.116 1.508 186.212 1.28 186.404 1.088C186.596 0.895998 186.824 0.799998 187.088 0.799998H209.984Z" fill="#121212"/>
<path d="M225.09 16.28C225.09 17.264 225.414 18.02 226.062 18.548C226.734 19.076 227.634 19.34 228.762 19.34C229.77 19.34 230.514 19.172 230.994 18.836C231.474 18.5 231.882 17.996 232.218 17.324C232.53 16.7 232.95 16.388 233.478 16.388H241.254C241.47 16.388 241.65 16.472 241.794 16.64C241.962 16.784 242.046 16.964 242.046 17.18C242.046 18.644 241.554 20.084 240.57 21.5C239.586 22.892 238.086 24.056 236.07 24.992C234.078 25.904 231.642 26.36 228.762 26.36C226.194 26.36 223.902 25.976 221.886 25.208C219.894 24.416 218.31 23.216 217.134 21.608C215.958 19.976 215.37 17.948 215.37 15.524V11.276C215.37 8.852 215.958 6.836 217.134 5.228C218.31 3.596 219.894 2.396 221.886 1.628C223.902 0.835999 226.194 0.439999 228.762 0.439999C231.642 0.439999 234.078 0.907999 236.07 1.844C238.086 2.756 239.586 3.92 240.57 5.336C241.554 6.728 242.046 8.156 242.046 9.62C242.046 9.836 241.962 10.028 241.794 10.196C241.65 10.34 241.47 10.412 241.254 10.412H233.478C232.95 10.412 232.53 10.1 232.218 9.476C231.882 8.804 231.474 8.3 230.994 7.964C230.514 7.628 229.77 7.46 228.762 7.46C227.634 7.46 226.734 7.724 226.062 8.252C225.414 8.78 225.09 9.536 225.09 10.52V16.28ZM272.344 0.799998C272.56 0.799998 272.74 0.883999 272.884 1.052C273.052 1.196 273.136 1.376 273.136 1.592L273.1 1.844L264.82 24.812C264.7 25.148 264.508 25.436 264.244 25.676C263.98 25.892 263.632 26 263.2 26H254.812C254.38 26 254.032 25.892 253.768 25.676C253.504 25.436 253.324 25.184 253.228 24.92L244.875 1.844L244.84 1.592C244.84 1.376 244.912 1.196 245.056 1.052C245.224 0.883999 245.416 0.799998 245.632 0.799998H253.228C253.66 0.799998 254.008 0.931999 254.271 1.196C254.56 1.436 254.752 1.7 254.848 1.988L258.988 15.776L263.128 1.988C263.224 1.676 263.404 1.4 263.668 1.16C263.932 0.919998 264.292 0.799998 264.748 0.799998H272.344Z" fill="#DC3545"/>
</svg>
